<svg xmlns="http://www.w3.org/2000/svg" version="1.1" xmlns:xlink="http://www.w3.org/1999/xlink" xmlns:svgjs="http://svgjs.dev/svgjs" viewBox="0 0 1422 800"><g stroke-width="3.5" stroke="hsl(30, 100%, 40%)" fill="none" stroke-linecap="butt"><line x1="0" y1="0" x2="58" y2="58" opacity="1.00"></line><line x1="58" y1="0" x2="116" y2="58" opacity="1.00"></line><line x1="116" y1="0" x2="174" y2="58" opacity="1.00"></line><line x1="232" y1="0" x2="174" y2="58" opacity="1.00"></line><line x1="232" y1="0" x2="290" y2="58" opacity="1.00"></line><line x1="348" y1="0" x2="290" y2="58" opacity="1.00"></line><line x1="406" y1="0" x2="348" y2="58" opacity="1.00"></line><line x1="464" y1="0" x2="406" y2="58" opacity="1.00"></line><line x1="464" y1="0" x2="522" y2="58" opacity="1.00"></line><line x1="580" y1="0" x2="522" y2="58" opacity="1.00"></line><line x1="580" y1="0" x2="638" y2="58" opacity="1.00"></line><line x1="696" y1="0" x2="638" y2="58" opacity="1.00"></line><line x1="754" y1="0" x2="696" y2="58" opacity="1.00"></line><line x1="754" y1="0" x2="812" y2="58" opacity="1.00"></line><line x1="870" y1="0" x2="812" y2="58" opacity="1.00"></line><line x1="870" y1="0" x2="928" y2="58" opacity="1.00"></line><line x1="928" y1="0" x2="986" y2="58" opacity="1.00"></line><line x1="1044" y1="0" x2="986" y2="58" opacity="1.00"></line><line x1="1044" y1="0" x2="1102" y2="58" opacity="1.00"></line><line x1="1102" y1="0" x2="1160" y2="58" opacity="1.00"></line><line x1="1218" y1="0" x2="1160" y2="58" opacity="1.00"></line><line x1="1218" y1="0" x2="1276" y2="58" opacity="1.00"></line><line x1="1276" y1="0" x2="1334" y2="58" opacity="1.00"></line><line x1="1392" y1="0" x2="1334" y2="58" opacity="1.00"></line><line x1="1450" y1="0" x2="1392" y2="58" opacity="1.00"></line><line x1="0" y1="58" x2="58" y2="116" opacity="0.93"></line><line x1="58" y1="58" x2="116" y2="116" opacity="0.93"></line><line x1="116" y1="58" x2="174" y2="116" opacity="0.93"></line><line x1="232" y1="58" x2="174" y2="116" opacity="0.93"></line><line x1="232" y1="58" x2="290" y2="116" opacity="0.93"></line><line x1="290" y1="58" x2="348" y2="116" opacity="0.93"></line><line x1="406" y1="58" x2="348" y2="116" opacity="0.93"></line><line x1="406" y1="58" x2="464" y2="116" opacity="0.93"></line><line x1="522" y1="58" x2="464" y2="116" opacity="0.93"></line><line x1="580" y1="58" x2="522" y2="116" opacity="0.93"></line><line x1="580" y1="58" x2="638" y2="116" opacity="0.93"></line><line x1="638" y1="58" x2="696" y2="116" opacity="0.93"></line><line x1="754" y1="58" x2="696" y2="116" opacity="0.93"></line><line x1="754" y1="58" x2="812" y2="116" opacity="0.93"></line><line x1="812" y1="58" x2="870" y2="116" opacity="0.93"></line><line x1="870" y1="58" x2="928" y2="116" opacity="0.93"></line><line x1="986" y1="58" x2="928" y2="116" opacity="0.93"></line><line x1="1044" y1="58" x2="986" y2="116" opacity="0.93"></line><line x1="1102" y1="58" x2="1044" y2="116" opacity="0.93"></line><line x1="1102" y1="58" x2="1160" y2="116" opacity="0.93"></line><line x1="1160" y1="58" x2="1218" y2="116" opacity="0.93"></line><line x1="1276" y1="58" x2="1218" y2="116" opacity="0.93"></line><line x1="1334" y1="58" x2="1276" y2="116" opacity="0.93"></line><line x1="1392" y1="58" x2="1334" y2="116" opacity="0.93"></line><line x1="1450" y1="58" x2="1392" y2="116" opacity="0.93"></line><line x1="0" y1="116" x2="58" y2="174" opacity="0.86"></line><line x1="116" y1="116" x2="58" y2="174" opacity="0.86"></line><line x1="174" y1="116" x2="116" y2="174" opacity="0.86"></line><line x1="232" y1="116" x2="174" y2="174" opacity="0.86"></line><line x1="290" y1="116" x2="232" y2="174" opacity="0.86"></line><line x1="290" y1="116" x2="348" y2="174" opacity="0.86"></line><line x1="348" y1="116" x2="406" y2="174" opacity="0.86"></line><line x1="464" y1="116" x2="406" y2="174" opacity="0.86"></line><line x1="522" y1="116" x2="464" y2="174" opacity="0.86"></line><line x1="522" y1="116" x2="580" y2="174" opacity="0.86"></line><line x1="580" y1="116" x2="638" y2="174" opacity="0.86"></line><line x1="638" y1="116" x2="696" y2="174" opacity="0.86"></line><line x1="754" y1="116" x2="696" y2="174" opacity="0.86"></line><line x1="812" y1="116" x2="754" y2="174" opacity="0.86"></line><line x1="812" y1="116" x2="870" y2="174" opacity="0.86"></line><line x1="870" y1="116" x2="928" y2="174" opacity="0.86"></line><line x1="928" y1="116" x2="986" y2="174" opacity="0.86"></line><line x1="986" y1="116" x2="1044" y2="174" opacity="0.86"></line><line x1="1102" y1="116" x2="1044" y2="174" opacity="0.86"></line><line x1="1102" y1="116" x2="1160" y2="174" opacity="0.86"></line><line x1="1160" y1="116" x2="1218" y2="174" opacity="0.86"></line><line x1="1276" y1="116" x2="1218" y2="174" opacity="0.86"></line><line x1="1276" y1="116" x2="1334" y2="174" opacity="0.86"></line><line x1="1334" y1="116" x2="1392" y2="174" opacity="0.86"></line><line x1="1392" y1="116" x2="1450" y2="174" opacity="0.86"></line><line x1="0" y1="174" x2="58" y2="232" opacity="0.79"></line><line x1="58" y1="174" x2="116" y2="232" opacity="0.79"></line><line x1="174" y1="174" x2="116" y2="232" opacity="0.79"></line><line x1="232" y1="174" x2="174" y2="232" opacity="0.79"></line><line x1="232" y1="174" x2="290" y2="232" opacity="0.79"></line><line x1="348" y1="174" x2="290" y2="232" opacity="0.79"></line><line x1="406" y1="174" x2="348" y2="232" opacity="0.79"></line><line x1="464" y1="174" x2="406" y2="232" opacity="0.79"></line><line x1="522" y1="174" x2="464" y2="232" opacity="0.79"></line><line x1="522" y1="174" x2="580" y2="232" opacity="0.79"></line><line x1="638" y1="174" x2="580" y2="232" opacity="0.79"></line><line x1="696" y1="174" x2="638" y2="232" opacity="0.79"></line><line x1="696" y1="174" x2="754" y2="232" opacity="0.79"></line><line x1="812" y1="174" x2="754" y2="232" opacity="0.79"></line><line x1="870" y1="174" x2="812" y2="232" opacity="0.79"></line><line x1="870" y1="174" x2="928" y2="232" opacity="0.79"></line><line x1="986" y1="174" x2="928" y2="232" opacity="0.79"></line><line x1="986" y1="174" x2="1044" y2="232" opacity="0.79"></line><line x1="1044" y1="174" x2="1102" y2="232" opacity="0.79"></line><line x1="1160" y1="174" x2="1102" y2="232" opacity="0.79"></line><line x1="1160" y1="174" x2="1218" y2="232" opacity="0.79"></line><line x1="1218" y1="174" x2="1276" y2="232" opacity="0.79"></line><line x1="1334" y1="174" x2="1276" y2="232" opacity="0.79"></line><line x1="1334" y1="174" x2="1392" y2="232" opacity="0.79"></line><line x1="1392" y1="174" x2="1450" y2="232" opacity="0.79"></line><line x1="58" y1="232" x2="0" y2="290" opacity="0.72"></line><line x1="58" y1="232" x2="116" y2="290" opacity="0.72"></line><line x1="116" y1="232" x2="174" y2="290" opacity="0.72"></line><line x1="232" y1="232" x2="174" y2="290" opacity="0.72"></line><line x1="232" y1="232" x2="290" y2="290" opacity="0.72"></line><line x1="290" y1="232" x2="348" y2="290" opacity="0.72"></line><line x1="406" y1="232" x2="348" y2="290" opacity="0.72"></line><line x1="464" y1="232" x2="406" y2="290" opacity="0.72"></line><line x1="522" y1="232" x2="464" y2="290" opacity="0.72"></line><line x1="522" y1="232" x2="580" y2="290" opacity="0.72"></line><line x1="638" y1="232" x2="580" y2="290" opacity="0.72"></line><line x1="696" y1="232" x2="638" y2="290" opacity="0.72"></line><line x1="754" y1="232" x2="696" y2="290" opacity="0.72"></line><line x1="812" y1="232" x2="754" y2="290" opacity="0.72"></line><line x1="812" y1="232" x2="870" y2="290" opacity="0.72"></line><line x1="928" y1="232" x2="870" y2="290" opacity="0.72"></line><line x1="928" y1="232" x2="986" y2="290" opacity="0.72"></line><line x1="1044" y1="232" x2="986" y2="290" opacity="0.72"></line><line x1="1102" y1="232" x2="1044" y2="290" opacity="0.72"></line><line x1="1160" y1="232" x2="1102" y2="290" opacity="0.72"></line><line x1="1218" y1="232" x2="1160" y2="290" opacity="0.72"></line><line x1="1276" y1="232" x2="1218" y2="290" opacity="0.72"></line><line x1="1276" y1="232" x2="1334" y2="290" opacity="0.72"></line><line x1="1392" y1="232" x2="1334" y2="290" opacity="0.72"></line><line x1="1450" y1="232" x2="1392" y2="290" opacity="0.72"></line><line x1="0" y1="290" x2="58" y2="348" opacity="0.66"></line><line x1="58" y1="290" x2="116" y2="348" opacity="0.66"></line><line x1="174" y1="290" x2="116" y2="348" opacity="0.66"></line><line x1="174" y1="290" x2="232" y2="348" opacity="0.66"></line><line x1="232" y1="290" x2="290" y2="348" opacity="0.66"></line><line x1="348" y1="290" x2="290" y2="348" opacity="0.66"></line><line x1="406" y1="290" x2="348" y2="348" opacity="0.66"></line><line x1="464" y1="290" x2="406" y2="348" opacity="0.66"></line><line x1="522" y1="290" x2="464" y2="348" opacity="0.66"></line><line x1="522" y1="290" x2="580" y2="348" opacity="0.66"></line><line x1="580" y1="290" x2="638" y2="348" opacity="0.66"></line><line x1="638" y1="290" x2="696" y2="348" opacity="0.66"></line><line x1="754" y1="290" x2="696" y2="348" opacity="0.66"></line><line x1="754" y1="290" x2="812" y2="348" opacity="0.66"></line><line x1="870" y1="290" x2="812" y2="348" opacity="0.66"></line><line x1="870" y1="290" x2="928" y2="348" opacity="0.66"></line><line x1="986" y1="290" x2="928" y2="348" opacity="0.66"></line><line x1="986" y1="290" x2="1044" y2="348" opacity="0.66"></line><line x1="1102" y1="290" x2="1044" y2="348" opacity="0.66"></line><line x1="1160" y1="290" x2="1102" y2="348" opacity="0.66"></line><line x1="1160" y1="290" x2="1218" y2="348" opacity="0.66"></line><line x1="1276" y1="290" x2="1218" y2="348" opacity="0.66"></line><line x1="1334" y1="290" x2="1276" y2="348" opacity="0.66"></line><line x1="1334" y1="290" x2="1392" y2="348" opacity="0.66"></line><line x1="1450" y1="290" x2="1392" y2="348" opacity="0.66"></line><line x1="0" y1="348" x2="58" y2="406" opacity="0.59"></line><line x1="58" y1="348" x2="116" y2="406" opacity="0.59"></line><line x1="116" y1="348" x2="174" y2="406" opacity="0.59"></line><line x1="174" y1="348" x2="232" y2="406" opacity="0.59"></line><line x1="232" y1="348" x2="290" y2="406" opacity="0.59"></line><line x1="348" y1="348" x2="290" y2="406" opacity="0.59"></line><line x1="406" y1="348" x2="348" y2="406" opacity="0.59"></line><line x1="464" y1="348" x2="406" y2="406" opacity="0.59"></line><line x1="464" y1="348" x2="522" y2="406" opacity="0.59"></line><line x1="580" y1="348" x2="522" y2="406" opacity="0.59"></line><line x1="638" y1="348" x2="580" y2="406" opacity="0.59"></line><line x1="638" y1="348" x2="696" y2="406" opacity="0.59"></line><line x1="696" y1="348" x2="754" y2="406" opacity="0.59"></line><line x1="754" y1="348" x2="812" y2="406" opacity="0.59"></line><line x1="812" y1="348" x2="870" y2="406" opacity="0.59"></line><line x1="870" y1="348" x2="928" y2="406" opacity="0.59"></line><line x1="986" y1="348" x2="928" y2="406" opacity="0.59"></line><line x1="986" y1="348" x2="1044" y2="406" opacity="0.59"></line><line x1="1102" y1="348" x2="1044" y2="406" opacity="0.59"></line><line x1="1102" y1="348" x2="1160" y2="406" opacity="0.59"></line><line x1="1160" y1="348" x2="1218" y2="406" opacity="0.59"></line><line x1="1276" y1="348" x2="1218" y2="406" opacity="0.59"></line><line x1="1334" y1="348" x2="1276" y2="406" opacity="0.59"></line><line x1="1392" y1="348" x2="1334" y2="406" opacity="0.59"></line><line x1="1450" y1="348" x2="1392" y2="406" opacity="0.59"></line><line x1="58" y1="406" x2="0" y2="464" opacity="0.52"></line><line x1="116" y1="406" x2="58" y2="464" opacity="0.52"></line><line x1="116" y1="406" x2="174" y2="464" opacity="0.52"></line><line x1="174" y1="406" x2="232" y2="464" opacity="0.52"></line><line x1="232" y1="406" x2="290" y2="464" opacity="0.52"></line><line x1="290" y1="406" x2="348" y2="464" opacity="0.52"></line><line x1="348" y1="406" x2="406" y2="464" opacity="0.52"></line><line x1="406" y1="406" x2="464" y2="464" opacity="0.52"></line><line x1="522" y1="406" x2="464" y2="464" opacity="0.52"></line><line x1="522" y1="406" x2="580" y2="464" opacity="0.52"></line><line x1="638" y1="406" x2="580" y2="464" opacity="0.52"></line><line x1="696" y1="406" x2="638" y2="464" opacity="0.52"></line><line x1="696" y1="406" x2="754" y2="464" opacity="0.52"></line><line x1="754" y1="406" x2="812" y2="464" opacity="0.52"></line><line x1="812" y1="406" x2="870" y2="464" opacity="0.52"></line><line x1="870" y1="406" x2="928" y2="464" opacity="0.52"></line><line x1="928" y1="406" x2="986" y2="464" opacity="0.52"></line><line x1="1044" y1="406" x2="986" y2="464" opacity="0.52"></line><line x1="1102" y1="406" x2="1044" y2="464" opacity="0.52"></line><line x1="1160" y1="406" x2="1102" y2="464" opacity="0.52"></line><line x1="1160" y1="406" x2="1218" y2="464" opacity="0.52"></line><line x1="1276" y1="406" x2="1218" y2="464" opacity="0.52"></line><line x1="1334" y1="406" x2="1276" y2="464" opacity="0.52"></line><line x1="1392" y1="406" x2="1334" y2="464" opacity="0.52"></line><line x1="1392" y1="406" x2="1450" y2="464" opacity="0.52"></line><line x1="58" y1="464" x2="0" y2="522" opacity="0.45"></line><line x1="116" y1="464" x2="58" y2="522" opacity="0.45"></line><line x1="116" y1="464" x2="174" y2="522" opacity="0.45"></line><line x1="174" y1="464" x2="232" y2="522" opacity="0.45"></line><line x1="232" y1="464" x2="290" y2="522" opacity="0.45"></line><line x1="290" y1="464" x2="348" y2="522" opacity="0.45"></line><line x1="406" y1="464" x2="348" y2="522" opacity="0.45"></line><line x1="464" y1="464" x2="406" y2="522" opacity="0.45"></line><line x1="464" y1="464" x2="522" y2="522" opacity="0.45"></line><line x1="580" y1="464" x2="522" y2="522" opacity="0.45"></line><line x1="580" y1="464" x2="638" y2="522" opacity="0.45"></line><line x1="696" y1="464" x2="638" y2="522" opacity="0.45"></line><line x1="696" y1="464" x2="754" y2="522" opacity="0.45"></line><line x1="812" y1="464" x2="754" y2="522" opacity="0.45"></line><line x1="812" y1="464" x2="870" y2="522" opacity="0.45"></line><line x1="928" y1="464" x2="870" y2="522" opacity="0.45"></line><line x1="986" y1="464" x2="928" y2="522" opacity="0.45"></line><line x1="986" y1="464" x2="1044" y2="522" opacity="0.45"></line><line x1="1102" y1="464" x2="1044" y2="522" opacity="0.45"></line><line x1="1102" y1="464" x2="1160" y2="522" opacity="0.45"></line><line x1="1160" y1="464" x2="1218" y2="522" opacity="0.45"></line><line x1="1218" y1="464" x2="1276" y2="522" opacity="0.45"></line><line x1="1276" y1="464" x2="1334" y2="522" opacity="0.45"></line><line x1="1392" y1="464" x2="1334" y2="522" opacity="0.45"></line><line x1="1450" y1="464" x2="1392" y2="522" opacity="0.45"></line><line x1="0" y1="522" x2="58" y2="580" opacity="0.38"></line><line x1="58" y1="522" x2="116" y2="580" opacity="0.38"></line><line x1="116" y1="522" x2="174" y2="580" opacity="0.38"></line><line x1="174" y1="522" x2="232" y2="580" opacity="0.38"></line><line x1="290" y1="522" x2="232" y2="580" opacity="0.38"></line><line x1="290" y1="522" x2="348" y2="580" opacity="0.38"></line><line x1="406" y1="522" x2="348" y2="580" opacity="0.38"></line><line x1="464" y1="522" x2="406" y2="580" opacity="0.38"></line><line x1="522" y1="522" x2="464" y2="580" opacity="0.38"></line><line x1="580" y1="522" x2="522" y2="580" opacity="0.38"></line><line x1="638" y1="522" x2="580" y2="580" opacity="0.38"></line><line x1="696" y1="522" x2="638" y2="580" opacity="0.38"></line><line x1="696" y1="522" x2="754" y2="580" opacity="0.38"></line><line x1="754" y1="522" x2="812" y2="580" opacity="0.38"></line><line x1="812" y1="522" x2="870" y2="580" opacity="0.38"></line><line x1="928" y1="522" x2="870" y2="580" opacity="0.38"></line><line x1="986" y1="522" x2="928" y2="580" opacity="0.38"></line><line x1="1044" y1="522" x2="986" y2="580" opacity="0.38"></line><line x1="1044" y1="522" x2="1102" y2="580" opacity="0.38"></line><line x1="1102" y1="522" x2="1160" y2="580" opacity="0.38"></line><line x1="1160" y1="522" x2="1218" y2="580" opacity="0.38"></line><line x1="1276" y1="522" x2="1218" y2="580" opacity="0.38"></line><line x1="1276" y1="522" x2="1334" y2="580" opacity="0.38"></line><line x1="1334" y1="522" x2="1392" y2="580" opacity="0.38"></line><line x1="1450" y1="522" x2="1392" y2="580" opacity="0.38"></line><line x1="58" y1="580" x2="0" y2="638" opacity="0.31"></line><line x1="116" y1="580" x2="58" y2="638" opacity="0.31"></line><line x1="116" y1="580" x2="174" y2="638" opacity="0.31"></line><line x1="232" y1="580" x2="174" y2="638" opacity="0.31"></line><line x1="290" y1="580" x2="232" y2="638" opacity="0.31"></line><line x1="348" y1="580" x2="290" y2="638" opacity="0.31"></line><line x1="406" y1="580" x2="348" y2="638" opacity="0.31"></line><line x1="406" y1="580" x2="464" y2="638" opacity="0.31"></line><line x1="464" y1="580" x2="522" y2="638" opacity="0.31"></line><line x1="522" y1="580" x2="580" y2="638" opacity="0.31"></line><line x1="638" y1="580" x2="580" y2="638" opacity="0.31"></line><line x1="638" y1="580" x2="696" y2="638" opacity="0.31"></line><line x1="696" y1="580" x2="754" y2="638" opacity="0.31"></line><line x1="812" y1="580" x2="754" y2="638" opacity="0.31"></line><line x1="812" y1="580" x2="870" y2="638" opacity="0.31"></line><line x1="870" y1="580" x2="928" y2="638" opacity="0.31"></line><line x1="928" y1="580" x2="986" y2="638" opacity="0.31"></line><line x1="986" y1="580" x2="1044" y2="638" opacity="0.31"></line><line x1="1044" y1="580" x2="1102" y2="638" opacity="0.31"></line><line x1="1160" y1="580" x2="1102" y2="638" opacity="0.31"></line><line x1="1218" y1="580" x2="1160" y2="638" opacity="0.31"></line><line x1="1218" y1="580" x2="1276" y2="638" opacity="0.31"></line><line x1="1334" y1="580" x2="1276" y2="638" opacity="0.31"></line><line x1="1392" y1="580" x2="1334" y2="638" opacity="0.31"></line><line x1="1392" y1="580" x2="1450" y2="638" opacity="0.31"></line><line x1="0" y1="638" x2="58" y2="696" opacity="0.24"></line><line x1="116" y1="638" x2="58" y2="696" opacity="0.24"></line><line x1="116" y1="638" x2="174" y2="696" opacity="0.24"></line><line x1="232" y1="638" x2="174" y2="696" opacity="0.24"></line><line x1="232" y1="638" x2="290" y2="696" opacity="0.24"></line><line x1="348" y1="638" x2="290" y2="696" opacity="0.24"></line><line x1="406" y1="638" x2="348" y2="696" opacity="0.24"></line><line x1="464" y1="638" x2="406" y2="696" opacity="0.24"></line><line x1="522" y1="638" x2="464" y2="696" opacity="0.24"></line><line x1="522" y1="638" x2="580" y2="696" opacity="0.24"></line><line x1="580" y1="638" x2="638" y2="696" opacity="0.24"></line><line x1="638" y1="638" x2="696" y2="696" opacity="0.24"></line><line x1="696" y1="638" x2="754" y2="696" opacity="0.24"></line><line x1="754" y1="638" x2="812" y2="696" opacity="0.24"></line><line x1="870" y1="638" x2="812" y2="696" opacity="0.24"></line><line x1="870" y1="638" x2="928" y2="696" opacity="0.24"></line><line x1="986" y1="638" x2="928" y2="696" opacity="0.24"></line><line x1="1044" y1="638" x2="986" y2="696" opacity="0.24"></line><line x1="1102" y1="638" x2="1044" y2="696" opacity="0.24"></line><line x1="1102" y1="638" x2="1160" y2="696" opacity="0.24"></line><line x1="1160" y1="638" x2="1218" y2="696" opacity="0.24"></line><line x1="1218" y1="638" x2="1276" y2="696" opacity="0.24"></line><line x1="1276" y1="638" x2="1334" y2="696" opacity="0.24"></line><line x1="1334" y1="638" x2="1392" y2="696" opacity="0.24"></line><line x1="1450" y1="638" x2="1392" y2="696" opacity="0.24"></line><line x1="0" y1="696" x2="58" y2="754" opacity="0.17"></line><line x1="116" y1="696" x2="58" y2="754" opacity="0.17"></line><line x1="116" y1="696" x2="174" y2="754" opacity="0.17"></line><line x1="232" y1="696" x2="174" y2="754" opacity="0.17"></line><line x1="290" y1="696" x2="232" y2="754" opacity="0.17"></line><line x1="290" y1="696" x2="348" y2="754" opacity="0.17"></line><line x1="348" y1="696" x2="406" y2="754" opacity="0.17"></line><line x1="406" y1="696" x2="464" y2="754" opacity="0.17"></line><line x1="464" y1="696" x2="522" y2="754" opacity="0.17"></line><line x1="522" y1="696" x2="580" y2="754" opacity="0.17"></line><line x1="580" y1="696" x2="638" y2="754" opacity="0.17"></line><line x1="696" y1="696" x2="638" y2="754" opacity="0.17"></line><line x1="754" y1="696" x2="696" y2="754" opacity="0.17"></line><line x1="754" y1="696" x2="812" y2="754" opacity="0.17"></line><line x1="870" y1="696" x2="812" y2="754" opacity="0.17"></line><line x1="928" y1="696" x2="870" y2="754" opacity="0.17"></line><line x1="986" y1="696" x2="928" y2="754" opacity="0.17"></line><line x1="986" y1="696" x2="1044" y2="754" opacity="0.17"></line><line x1="1102" y1="696" x2="1044" y2="754" opacity="0.17"></line><line x1="1102" y1="696" x2="1160" y2="754" opacity="0.17"></line><line x1="1218" y1="696" x2="1160" y2="754" opacity="0.17"></line><line x1="1276" y1="696" x2="1218" y2="754" opacity="0.17"></line><line x1="1276" y1="696" x2="1334" y2="754" opacity="0.17"></line><line x1="1392" y1="696" x2="1334" y2="754" opacity="0.17"></line><line x1="1450" y1="696" x2="1392" y2="754" opacity="0.17"></line><line x1="0" y1="754" x2="58" y2="812" opacity="0.10"></line><line x1="58" y1="754" x2="116" y2="812" opacity="0.10"></line><line x1="116" y1="754" x2="174" y2="812" opacity="0.10"></line><line x1="174" y1="754" x2="232" y2="812" opacity="0.10"></line><line x1="290" y1="754" x2="232" y2="812" opacity="0.10"></line><line x1="348" y1="754" x2="290" y2="812" opacity="0.10"></line><line x1="406" y1="754" x2="348" y2="812" opacity="0.10"></line><line x1="464" y1="754" x2="406" y2="812" opacity="0.10"></line><line x1="464" y1="754" x2="522" y2="812" opacity="0.10"></line><line x1="580" y1="754" x2="522" y2="812" opacity="0.10"></line><line x1="638" y1="754" x2="580" y2="812" opacity="0.10"></line><line x1="638" y1="754" x2="696" y2="812" opacity="0.10"></line><line x1="754" y1="754" x2="696" y2="812" opacity="0.10"></line><line x1="812" y1="754" x2="754" y2="812" opacity="0.10"></line><line x1="870" y1="754" x2="812" y2="812" opacity="0.10"></line><line x1="870" y1="754" x2="928" y2="812" opacity="0.10"></line><line x1="986" y1="754" x2="928" y2="812" opacity="0.10"></line><line x1="1044" y1="754" x2="986" y2="812" opacity="0.10"></line><line x1="1044" y1="754" x2="1102" y2="812" opacity="0.10"></line><line x1="1160" y1="754" x2="1102" y2="812" opacity="0.10"></line><line x1="1218" y1="754" x2="1160" y2="812" opacity="0.10"></line><line x1="1276" y1="754" x2="1218" y2="812" opacity="0.10"></line><line x1="1276" y1="754" x2="1334" y2="812" opacity="0.10"></line><line x1="1392" y1="754" x2="1334" y2="812" opacity="0.10"></line><line x1="1392" y1="754" x2="1450" y2="812" opacity="0.10"></line></g></svg>