<svg xmlns="http://www.w3.org/2000/svg" version="1.1" xmlns:xlink="http://www.w3.org/1999/xlink" xmlns:svgjs="http://svgjs.dev/svgjs" viewBox="0 0 800 800" opacity="1"><defs><filter id="nnneon-filter" x="-100%" y="-100%" width="400%" height="400%" filterUnits="objectBoundingBox" primitiveUnits="userSpaceOnUse" color-interpolation-filters="sRGB">
	<feGaussianBlur stdDeviation="16 8" x="0%" y="0%" width="100%" height="100%" in="SourceGraphic" edgeMode="none" result="blur"></feGaussianBlur></filter><filter id="nnneon-filter2" x="-100%" y="-100%" width="400%" height="400%" filterUnits="objectBoundingBox" primitiveUnits="userSpaceOnUse" color-interpolation-filters="sRGB">
	<feGaussianBlur stdDeviation="67 41" x="0%" y="0%" width="100%" height="100%" in="SourceGraphic" edgeMode="none" result="blur"></feGaussianBlur></filter></defs><g stroke-width="17.5" stroke="hsl(50, 98%, 50%)" fill="none"><path d="M377.32944155816494 73.02891750312142C391.35800200624976 64.93098312681906 408.6420590289065 64.93098312681906 422.6706194769913 73.03118456201736L671.829460376525 216.88287268618126C685.8580208246098 224.98080706248368 694.5000493359381 239.95019695238415 694.5000493359381 256.1483327638849V543.8517090122127C694.5000493359381 560.0498448237136 685.8580208246098 575.019234713614 671.829460376525 583.1194361488123L422.6706194769913 726.9711242729761C408.6420590289065 735.0690586492784 391.35800200624976 735.0690586492784 377.32944155816494 726.9688572140802L128.17060065863126 583.1171690899164C114.14204021054644 575.019234713614 105.50001169921813 560.0498448237136 105.50001169921813 543.8517090122127V256.1483327638849C105.50001169921813 239.95019695238415 114.14204021054644 224.98080706248368 128.17060065863126 216.88060562728538L377.32944155816494 73.02891750312142Z " filter="url(#nnneon-filter)"></path><path d="M466.32944155816494 73.02891750312142C480.35800200624976 64.93098312681906 497.6420590289065 64.93098312681906 511.6706194769913 73.03118456201736L760.829460376525 216.88287268618126C774.8580208246098 224.98080706248368 783.5000493359381 239.95019695238415 783.5000493359381 256.1483327638849V543.8517090122127C783.5000493359381 560.0498448237136 774.8580208246098 575.019234713614 760.829460376525 583.1194361488123L511.6706194769913 726.9711242729761C497.6420590289065 735.0690586492784 480.35800200624976 735.0690586492784 466.32944155816494 726.9688572140802L217.17060065863126 583.1171690899164C203.14204021054644 575.019234713614 194.50001169921813 560.0498448237136 194.50001169921813 543.8517090122127V256.1483327638849C194.50001169921813 239.95019695238415 203.14204021054644 224.98080706248368 217.17060065863126 216.88060562728538L466.32944155816494 73.02891750312142Z " filter="url(#nnneon-filter2)" opacity="0.24"></path><path d="M288.32944155816494 73.02891750312142C302.35800200624976 64.93098312681906 319.6420590289065 64.93098312681906 333.6706194769913 73.03118456201736L582.829460376525 216.88287268618126C596.8580208246098 224.98080706248368 605.5000493359381 239.95019695238415 605.5000493359381 256.1483327638849V543.8517090122127C605.5000493359381 560.0498448237136 596.8580208246098 575.019234713614 582.829460376525 583.1194361488123L333.6706194769913 726.9711242729761C319.6420590289065 735.0690586492784 302.35800200624976 735.0690586492784 288.32944155816494 726.9688572140802L39.17060065863126 583.1171690899164C25.14204021054644 575.019234713614 16.500011699218135 560.0498448237136 16.500011699218135 543.8517090122127V256.1483327638849C16.500011699218135 239.95019695238415 25.14204021054644 224.98080706248368 39.17060065863126 216.88060562728538L288.32944155816494 73.02891750312142Z " filter="url(#nnneon-filter2)" opacity="0.24"></path><path d="M377.32944155816494 73.02891750312142C391.35800200624976 64.93098312681906 408.6420590289065 64.93098312681906 422.6706194769913 73.03118456201736L671.829460376525 216.88287268618126C685.8580208246098 224.98080706248368 694.5000493359381 239.95019695238415 694.5000493359381 256.1483327638849V543.8517090122127C694.5000493359381 560.0498448237136 685.8580208246098 575.019234713614 671.829460376525 583.1194361488123L422.6706194769913 726.9711242729761C408.6420590289065 735.0690586492784 391.35800200624976 735.0690586492784 377.32944155816494 726.9688572140802L128.17060065863126 583.1171690899164C114.14204021054644 575.019234713614 105.50001169921813 560.0498448237136 105.50001169921813 543.8517090122127V256.1483327638849C105.50001169921813 239.95019695238415 114.14204021054644 224.98080706248368 128.17060065863126 216.88060562728538L377.32944155816494 73.02891750312142Z "></path></g></svg>