<svg xmlns="http://www.w3.org/2000/svg" version="1.1" xmlns:xlink="http://www.w3.org/1999/xlink" xmlns:svgjs="http://svgjs.dev/svgjs" viewBox="0 0 800 800"><defs><linearGradient x1="50%" y1="0%" x2="50%" y2="100%" id="nnneon-grad"><stop stop-color="hsl(55, 100%, 31%)" stop-opacity="1" offset="0%"></stop><stop stop-color="hsl(55, 100%, 31%)" stop-opacity="1" offset="100%"></stop></linearGradient><filter id="nnneon-filter" x="-100%" y="-100%" width="400%" height="400%" filterUnits="objectBoundingBox" primitiveUnits="userSpaceOnUse" color-interpolation-filters="sRGB">
	<feGaussianBlur stdDeviation="21 15" x="0%" y="0%" width="100%" height="100%" in="SourceGraphic" edgeMode="none" result="blur"></feGaussianBlur></filter><filter id="nnneon-filter2" x="-100%" y="-100%" width="400%" height="400%" filterUnits="objectBoundingBox" primitiveUnits="userSpaceOnUse" color-interpolation-filters="sRGB">
	<feGaussianBlur stdDeviation="41 22" x="0%" y="0%" width="100%" height="100%" in="SourceGraphic" edgeMode="none" result="blur"></feGaussianBlur></filter></defs><g stroke-width="17.5" stroke="url(#nnneon-grad)" fill="none"><path d="M373.05705552336894 11.409578572432167C389.7293684497856 1.7855479045006462 410.2706925853706 1.7855479045006462 426.9430055117873 11.412272869931599L723.0570778881431 182.37353210068665C739.7293908145598 191.99756276861814 750.0000528823523 209.78800915729448 750.0000528823523 229.03876479065696V570.961283252167C750.0000528823523 590.2120388855295 739.7293908145598 608.0024852742059 723.0570778881431 617.6292102396368L426.9430055117873 788.5904694703918C410.2706925853706 798.2145001383233 389.7293684497856 798.2145001383233 373.05705552336894 788.5877751728924L76.94298314701308 617.6265159421373C60.270670220596514 608.0024852742059 50.00000815280396 590.2120388855295 50.00000815280396 570.961283252167V229.03876479065696C50.00000815280396 209.78800915729448 60.270670220596514 191.99756276861814 76.94298314701308 182.37083780318727L373.05705552336894 11.409578572432167Z " filter="url(#nnneon-filter)"></path><path d="M462.05705552336894 11.409578572432167C478.7293684497856 1.7855479045006462 499.2706925853706 1.7855479045006462 515.9430055117873 11.412272869931599L812.0570778881431 182.37353210068665C828.7293908145598 191.99756276861814 839.0000528823523 209.78800915729448 839.0000528823523 229.03876479065696V570.961283252167C839.0000528823523 590.2120388855295 828.7293908145598 608.0024852742059 812.0570778881431 617.6292102396368L515.9430055117873 788.5904694703918C499.2706925853706 798.2145001383233 478.7293684497856 798.2145001383233 462.05705552336894 788.5877751728924L165.94298314701308 617.6265159421373C149.27067022059651 608.0024852742059 139.00000815280396 590.2120388855295 139.00000815280396 570.961283252167V229.03876479065696C139.00000815280396 209.78800915729448 149.27067022059651 191.99756276861814 165.94298314701308 182.37083780318727L462.05705552336894 11.409578572432167Z " filter="url(#nnneon-filter2)" opacity="0.24"></path><path d="M284.05705552336894 11.409578572432167C300.7293684497856 1.7855479045006462 321.2706925853706 1.7855479045006462 337.9430055117873 11.412272869931599L634.0570778881431 182.37353210068665C650.7293908145598 191.99756276861814 661.0000528823523 209.78800915729448 661.0000528823523 229.03876479065696V570.961283252167C661.0000528823523 590.2120388855295 650.7293908145598 608.0024852742059 634.0570778881431 617.6292102396368L337.9430055117873 788.5904694703918C321.2706925853706 798.2145001383233 300.7293684497856 798.2145001383233 284.05705552336894 788.5877751728924L-12.05701685298692 617.6265159421373C-28.729329779403486 608.0024852742059 -38.99999184719604 590.2120388855295 -38.99999184719604 570.961283252167V229.03876479065696C-38.99999184719604 209.78800915729448 -28.729329779403486 191.99756276861814 -12.05701685298692 182.37083780318727L284.05705552336894 11.409578572432167Z " filter="url(#nnneon-filter2)" opacity="0.24"></path><path d="M373.05705552336894 11.409578572432167C389.7293684497856 1.7855479045006462 410.2706925853706 1.7855479045006462 426.9430055117873 11.412272869931599L723.0570778881431 182.37353210068665C739.7293908145598 191.99756276861814 750.0000528823523 209.78800915729448 750.0000528823523 229.03876479065696V570.961283252167C750.0000528823523 590.2120388855295 739.7293908145598 608.0024852742059 723.0570778881431 617.6292102396368L426.9430055117873 788.5904694703918C410.2706925853706 798.2145001383233 389.7293684497856 798.2145001383233 373.05705552336894 788.5877751728924L76.94298314701308 617.6265159421373C60.270670220596514 608.0024852742059 50.00000815280396 590.2120388855295 50.00000815280396 570.961283252167V229.03876479065696C50.00000815280396 209.78800915729448 60.270670220596514 191.99756276861814 76.94298314701308 182.37083780318727L373.05705552336894 11.409578572432167Z "></path></g></svg>