<svg xmlns="http://www.w3.org/2000/svg" version="1.1" xmlns:xlink="http://www.w3.org/1999/xlink" xmlns:svgjs="http://svgjs.dev/svgjs" viewBox="0 0 1422 800"><defs><linearGradient x1="50%" y1="0%" x2="50%" y2="100%" id="oooscillate-grad"><stop stop-color="hsl(30, 100%, 50%)" stop-opacity="1" offset="0%"></stop><stop stop-color="hsl(30, 100%, 70%)" stop-opacity="1" offset="100%"></stop></linearGradient></defs><g stroke-width="2" stroke="url(#oooscillate-grad)" fill="none" stroke-linecap="round"><path d="M 0 2190 Q 355.5 5 711 400 Q 1066.5 795 1422 2190" opacity="0.05"></path><path d="M 0 2160 Q 355.5 5 711 400 Q 1066.5 795 1422 2160" opacity="0.06"></path><path d="M 0 2130 Q 355.5 5 711 400 Q 1066.5 795 1422 2130" opacity="0.08"></path><path d="M 0 2100 Q 355.5 5 711 400 Q 1066.5 795 1422 2100" opacity="0.09"></path><path d="M 0 2070 Q 355.5 5 711 400 Q 1066.5 795 1422 2070" opacity="0.10"></path><path d="M 0 2040 Q 355.5 5 711 400 Q 1066.5 795 1422 2040" opacity="0.12"></path><path d="M 0 2010 Q 355.5 5 711 400 Q 1066.5 795 1422 2010" opacity="0.13"></path><path d="M 0 1980 Q 355.5 5 711 400 Q 1066.5 795 1422 1980" opacity="0.14"></path><path d="M 0 1950 Q 355.5 5 711 400 Q 1066.5 795 1422 1950" opacity="0.16"></path><path d="M 0 1920 Q 355.5 5 711 400 Q 1066.5 795 1422 1920" opacity="0.17"></path><path d="M 0 1890 Q 355.5 5 711 400 Q 1066.5 795 1422 1890" opacity="0.18"></path><path d="M 0 1860 Q 355.5 5 711 400 Q 1066.5 795 1422 1860" opacity="0.20"></path><path d="M 0 1830 Q 355.5 5 711 400 Q 1066.5 795 1422 1830" opacity="0.21"></path><path d="M 0 1800 Q 355.5 5 711 400 Q 1066.5 795 1422 1800" opacity="0.22"></path><path d="M 0 1770 Q 355.5 5 711 400 Q 1066.5 795 1422 1770" opacity="0.23"></path><path d="M 0 1740 Q 355.5 5 711 400 Q 1066.5 795 1422 1740" opacity="0.25"></path><path d="M 0 1710 Q 355.5 5 711 400 Q 1066.5 795 1422 1710" opacity="0.26"></path><path d="M 0 1680 Q 355.5 5 711 400 Q 1066.5 795 1422 1680" opacity="0.27"></path><path d="M 0 1650 Q 355.5 5 711 400 Q 1066.5 795 1422 1650" opacity="0.29"></path><path d="M 0 1620 Q 355.5 5 711 400 Q 1066.5 795 1422 1620" opacity="0.30"></path><path d="M 0 1590 Q 355.5 5 711 400 Q 1066.5 795 1422 1590" opacity="0.31"></path><path d="M 0 1560 Q 355.5 5 711 400 Q 1066.5 795 1422 1560" opacity="0.33"></path><path d="M 0 1530 Q 355.5 5 711 400 Q 1066.5 795 1422 1530" opacity="0.34"></path><path d="M 0 1500 Q 355.5 5 711 400 Q 1066.5 795 1422 1500" opacity="0.35"></path><path d="M 0 1470 Q 355.5 5 711 400 Q 1066.5 795 1422 1470" opacity="0.37"></path><path d="M 0 1440 Q 355.5 5 711 400 Q 1066.5 795 1422 1440" opacity="0.38"></path><path d="M 0 1410 Q 355.5 5 711 400 Q 1066.5 795 1422 1410" opacity="0.39"></path><path d="M 0 1380 Q 355.5 5 711 400 Q 1066.5 795 1422 1380" opacity="0.41"></path><path d="M 0 1350 Q 355.5 5 711 400 Q 1066.5 795 1422 1350" opacity="0.42"></path><path d="M 0 1320 Q 355.5 5 711 400 Q 1066.5 795 1422 1320" opacity="0.43"></path><path d="M 0 1290 Q 355.5 5 711 400 Q 1066.5 795 1422 1290" opacity="0.45"></path><path d="M 0 1260 Q 355.5 5 711 400 Q 1066.5 795 1422 1260" opacity="0.46"></path><path d="M 0 1230 Q 355.5 5 711 400 Q 1066.5 795 1422 1230" opacity="0.47"></path><path d="M 0 1200 Q 355.5 5 711 400 Q 1066.5 795 1422 1200" opacity="0.49"></path><path d="M 0 1170 Q 355.5 5 711 400 Q 1066.5 795 1422 1170" opacity="0.50"></path><path d="M 0 1140 Q 355.5 5 711 400 Q 1066.5 795 1422 1140" opacity="0.51"></path><path d="M 0 1110 Q 355.5 5 711 400 Q 1066.5 795 1422 1110" opacity="0.53"></path><path d="M 0 1080 Q 355.5 5 711 400 Q 1066.5 795 1422 1080" opacity="0.54"></path><path d="M 0 1050 Q 355.5 5 711 400 Q 1066.5 795 1422 1050" opacity="0.55"></path><path d="M 0 1020 Q 355.5 5 711 400 Q 1066.5 795 1422 1020" opacity="0.56"></path><path d="M 0 990 Q 355.5 5 711 400 Q 1066.5 795 1422 990" opacity="0.58"></path><path d="M 0 960 Q 355.5 5 711 400 Q 1066.5 795 1422 960" opacity="0.59"></path><path d="M 0 930 Q 355.5 5 711 400 Q 1066.5 795 1422 930" opacity="0.60"></path><path d="M 0 900 Q 355.5 5 711 400 Q 1066.5 795 1422 900" opacity="0.62"></path><path d="M 0 870 Q 355.5 5 711 400 Q 1066.5 795 1422 870" opacity="0.63"></path><path d="M 0 840 Q 355.5 5 711 400 Q 1066.5 795 1422 840" opacity="0.64"></path><path d="M 0 810 Q 355.5 5 711 400 Q 1066.5 795 1422 810" opacity="0.66"></path><path d="M 0 780 Q 355.5 5 711 400 Q 1066.5 795 1422 780" opacity="0.67"></path><path d="M 0 750 Q 355.5 5 711 400 Q 1066.5 795 1422 750" opacity="0.68"></path><path d="M 0 720 Q 355.5 5 711 400 Q 1066.5 795 1422 720" opacity="0.70"></path><path d="M 0 690 Q 355.5 5 711 400 Q 1066.5 795 1422 690" opacity="0.71"></path><path d="M 0 660 Q 355.5 5 711 400 Q 1066.5 795 1422 660" opacity="0.72"></path><path d="M 0 630 Q 355.5 5 711 400 Q 1066.5 795 1422 630" opacity="0.74"></path><path d="M 0 600 Q 355.5 5 711 400 Q 1066.5 795 1422 600" opacity="0.75"></path><path d="M 0 570 Q 355.5 5 711 400 Q 1066.5 795 1422 570" opacity="0.76"></path><path d="M 0 540 Q 355.5 5 711 400 Q 1066.5 795 1422 540" opacity="0.78"></path><path d="M 0 510 Q 355.5 5 711 400 Q 1066.5 795 1422 510" opacity="0.79"></path><path d="M 0 480 Q 355.5 5 711 400 Q 1066.5 795 1422 480" opacity="0.80"></path><path d="M 0 450 Q 355.5 5 711 400 Q 1066.5 795 1422 450" opacity="0.82"></path><path d="M 0 420 Q 355.5 5 711 400 Q 1066.5 795 1422 420" opacity="0.83"></path><path d="M 0 390 Q 355.5 5 711 400 Q 1066.5 795 1422 390" opacity="0.84"></path><path d="M 0 360 Q 355.5 5 711 400 Q 1066.5 795 1422 360" opacity="0.85"></path><path d="M 0 330 Q 355.5 5 711 400 Q 1066.5 795 1422 330" opacity="0.87"></path><path d="M 0 300 Q 355.5 5 711 400 Q 1066.5 795 1422 300" opacity="0.88"></path><path d="M 0 270 Q 355.5 5 711 400 Q 1066.5 795 1422 270" opacity="0.89"></path><path d="M 0 240 Q 355.5 5 711 400 Q 1066.5 795 1422 240" opacity="0.91"></path><path d="M 0 210 Q 355.5 5 711 400 Q 1066.5 795 1422 210" opacity="0.92"></path><path d="M 0 180 Q 355.5 5 711 400 Q 1066.5 795 1422 180" opacity="0.93"></path><path d="M 0 150 Q 355.5 5 711 400 Q 1066.5 795 1422 150" opacity="0.95"></path><path d="M 0 120 Q 355.5 5 711 400 Q 1066.5 795 1422 120" opacity="0.96"></path><path d="M 0 90 Q 355.5 5 711 400 Q 1066.5 795 1422 90" opacity="0.97"></path><path d="M 0 60 Q 355.5 5 711 400 Q 1066.5 795 1422 60" opacity="0.99"></path></g></svg>